<?xml version="1.0" standalone="no"?>
<!DOCTYPE svg PUBLIC "-//W3C//DTD SVG 20010904//EN"
 "http://www.w3.org/TR/2001/REC-SVG-20010904/DTD/svg10.dtd">
<svg version="1.0" xmlns="http://www.w3.org/2000/svg"
 width="1280.000000pt" height="1280.000000pt" viewBox="0 0 1280.000000 1280.000000"
 preserveAspectRatio="xMidYMid meet">

<g transform="translate(0.000000,1280.000000) scale(0.100000,-0.100000)"
fill="#000000" stroke="none">
<path d="M0 6400 l0 -6400 6400 0 6400 0 0 6400 0 6400 -6400 0 -6400 0 0
-6400z m5154 2524 c5 -13 14 -15 41 -10 28 6 60 -2 146 -33 61 -23 119 -41
129 -41 26 0 33 -15 19 -39 -10 -15 -10 -24 4 -44 19 -29 103 -81 117 -72 29
18 -3 79 -51 101 -22 9 -39 21 -39 26 0 13 9 10 67 -24 31 -18 69 -41 87 -52
17 -10 48 -33 68 -51 35 -32 90 -55 133 -55 11 0 27 -4 34 -9 12 -8 9 -11 -12
-16 -35 -9 -34 -27 6 -77 21 -27 28 -42 20 -45 -16 -6 -17 -33 -3 -33 6 0 13
8 17 18 3 9 15 25 27 34 20 16 22 16 43 -4 l21 -20 11 21 c7 12 21 21 32 21
12 0 23 8 26 20 3 11 8 20 11 20 2 0 36 -26 74 -57 54 -43 66 -58 55 -65 -21
-11 -44 -1 -50 23 -3 10 -13 19 -22 19 -15 0 -17 -7 -12 -40 8 -60 20 -69 84
-66 39 2 56 -1 60 -10 8 -21 33 -16 33 6 0 12 -7 20 -16 20 -10 0 -14 7 -12
23 2 17 11 23 37 25 19 2 44 1 57 -2 20 -5 23 -11 17 -36 -4 -23 -2 -30 11
-30 9 0 16 8 16 19 0 12 9 21 25 25 33 8 54 -3 31 -16 -27 -15 -44 -68 -32
-100 14 -37 32 -35 52 3 l16 32 31 -54 c17 -30 34 -70 37 -89 4 -19 10 -46 14
-60 5 -21 2 -27 -21 -38 -26 -12 -30 -11 -58 22 -66 76 -298 217 -407 246 -34
10 -39 14 -34 33 3 12 6 32 6 43 0 13 8 24 20 27 11 3 20 10 20 16 0 16 -33
27 -37 14 -2 -6 -15 -23 -29 -38 -16 -18 -22 -33 -19 -48 l6 -23 -95 15 -94
15 1 42 c3 77 -42 87 -64 14 -11 -38 -15 -40 -40 -35 -16 4 -36 2 -45 -3 -13
-7 -28 -5 -51 6 -30 14 -34 14 -46 0 -9 -13 -37 -17 -127 -21 -63 -3 -126 -8
-140 -13 -25 -8 -25 -7 -7 19 9 14 14 33 11 41 -7 18 20 33 73 42 56 9 67 17
60 46 -11 43 -216 239 -296 283 -80 43 -106 67 -98 90 8 20 43 19 51 -1z m906
-329 c0 -3 -6 -15 -12 -28 -7 -12 -14 -24 -15 -26 -1 -1 -11 6 -23 17 -12 11
-19 25 -15 31 6 11 65 16 65 6z m484 -203 c2 -4 1 -14 -3 -21 -6 -9 -10 -7
-14 8 -5 20 7 29 17 13z m208 -169 c89 -87 165 -179 156 -189 -5 -4 -212 213
-247 259 -33 42 9 10 91 -70z m-118 -179 c19 -7 21 -34 3 -34 -7 0 -18 9 -25
20 -12 20 -6 25 22 14z m70 -59 c15 -36 33 -44 53 -24 17 17 50 -6 73 -51 14
-27 25 -38 35 -34 8 4 15 10 15 15 0 5 7 9 15 9 20 0 30 -26 17 -43 -5 -6 -10
-31 -9 -55 0 -24 -5 -48 -12 -55 -6 -6 -11 -19 -11 -28 0 -9 -7 -19 -15 -23
-19 -7 -19 -40 0 -56 12 -10 15 -7 21 14 4 17 13 26 26 26 17 0 19 5 15 27 -6
33 8 63 28 63 8 0 15 5 15 10 0 6 -6 10 -14 10 -8 0 -18 5 -21 10 -8 13 12 40
29 40 17 0 119 -97 114 -110 -2 -6 -28 -13 -57 -15 -30 -2 -60 -10 -66 -17
-18 -19 -55 -117 -55 -144 0 -12 -10 -30 -21 -38 l-22 -15 26 -43 c33 -57 53
-74 104 -87 26 -7 44 -19 48 -30 8 -25 44 -71 55 -71 5 0 16 12 24 28 14 25
15 25 16 5 0 -12 -11 -34 -24 -48 -14 -15 -22 -33 -19 -41 8 -20 -7 -17 -33 7
-26 24 -38 20 -60 -24 -9 -17 -23 -37 -30 -45 -8 -7 -14 -20 -14 -27 0 -8 -9
-19 -20 -25 -19 -10 -70 -108 -70 -134 0 -7 11 -22 25 -34 22 -19 25 -28 19
-60 -4 -20 -11 -45 -16 -55 -6 -12 -5 -23 3 -33 6 -8 9 -17 6 -20 -6 -6 -96
23 -112 36 -16 13 -6 75 16 99 24 25 34 53 43 112 4 30 15 54 31 69 15 14 25
35 25 50 0 39 20 90 35 90 19 0 29 20 17 32 -8 8 -16 7 -28 -2 -14 -12 -16
-11 -12 10 2 20 9 25 30 25 33 0 51 16 42 39 -5 14 -14 16 -39 12 -39 -8 -48
2 -65 71 -6 29 -18 57 -25 63 -8 7 -11 24 -8 49 4 32 1 41 -21 58 -27 21 -34
47 -16 58 20 12 11 54 -16 67 -36 18 -101 178 -79 194 22 16 18 24 -10 24 -31
0 -47 29 -39 69 8 40 20 39 38 -4z m-179 -593 c118 -42 216 -88 160 -76 -16 4
-41 12 -55 19 -27 14 -156 55 -171 55 -24 0 -4 -47 36 -88 25 -25 45 -53 45
-62 0 -9 10 -21 23 -27 23 -11 65 -79 54 -89 -3 -4 -48 -1 -99 6 -51 7 -137
15 -190 19 -53 3 -99 9 -103 13 -7 7 60 103 90 128 15 13 19 12 30 -3 14 -20
31 -22 41 -6 4 7 -4 20 -17 30 l-24 18 23 24 c19 20 22 29 13 45 -23 43 5 42
144 -6z m-700 -11 c-2 -28 -35 -87 -35 -63 0 7 -16 20 -36 28 l-36 15 34 24
c18 13 43 24 54 24 18 1 21 -4 19 -28z m298 12 c-13 -2 -35 -2 -50 0 -16 2 -5
4 22 4 28 0 40 -2 28 -4z m-225 -114 c19 -28 32 -35 69 -41 60 -9 70 -20 49
-52 -20 -31 -32 -33 -41 -6 -8 26 -16 25 -62 -5 -52 -36 -85 -30 -100 16 -6
20 -15 53 -18 73 -7 34 -6 36 18 36 14 0 29 5 32 11 10 16 28 6 53 -32z m1276
-70 c29 -23 33 -41 13 -58 -18 -14 -72 40 -64 63 8 21 19 20 51 -5z m-1064
-24 l25 -14 -26 -1 c-14 0 -34 7 -45 15 -19 14 -19 14 1 14 11 0 31 -6 45 -14z
m-529 -129 c36 -20 37 -20 114 3 42 12 80 20 83 17 9 -9 -19 -36 -38 -36 -23
0 -44 -26 -37 -44 5 -12 -7 -14 -69 -13 -63 1 -74 4 -74 19 0 25 -20 33 -38
15 -12 -13 -13 -19 -3 -30 11 -14 3 -111 -15 -184 -8 -30 -28 -16 -44 33 -10
28 -9 37 4 50 9 8 16 20 16 25 0 21 -21 49 -37 49 -14 0 -14 2 1 19 13 14 14
21 5 26 -18 12 -3 103 23 141 l23 34 25 -53 c18 -37 36 -58 61 -71z m1649 10
c0 -24 -60 -202 -75 -222 -14 -18 -14 -18 -15 0 0 29 71 236 81 236 5 0 9 -6
9 -14z m-1480 -96 c0 -5 -5 -10 -11 -10 -5 0 -7 5 -4 10 3 6 8 10 11 10 2 0 4
-4 4 -10z m1295 -57 c-9 -21 -25 -47 -37 -58 -18 -17 -17 -12 7 30 15 28 30
53 32 58 2 4 6 7 9 7 2 0 -3 -17 -11 -37z m488 -191 c26 -42 47 -80 47 -84 0
-3 -14 -11 -31 -18 -21 -9 -27 -16 -20 -23 20 -20 11 -27 -34 -27 -34 0 -47
-4 -52 -17 -8 -19 -20 -35 -81 -99 l-42 -45 -10 26 c-14 38 -13 45 10 45 15 0
20 7 20 25 0 16 -6 25 -15 25 -8 0 -15 -4 -15 -10 0 -28 -23 -2 -56 62 -20 40
-49 92 -65 115 -15 24 -27 43 -24 43 22 0 98 -44 102 -60 6 -23 24 -25 53 -8
16 10 24 10 43 -1 66 -42 76 -46 88 -34 7 7 14 46 17 87 2 42 8 76 11 76 4 0
28 -35 54 -78z m-1514 20 c78 -29 96 -46 61 -57 -15 -5 -26 -1 -35 12 -14 17
-14 17 -15 -4 0 -17 -13 -29 -47 -47 l-48 -24 -11 67 c-6 36 -9 69 -7 74 6 11
22 8 102 -21z m991 4 c0 -13 6 -26 13 -29 15 -6 47 15 47 32 0 6 5 11 10 11
17 0 11 -15 -16 -46 -14 -16 -37 -44 -51 -62 -17 -22 -33 -32 -44 -29 -11 3
-19 -2 -22 -14 -10 -37 -28 -21 -22 19 11 62 12 64 33 51 23 -15 52 -6 52 16
0 9 -12 18 -30 22 -16 3 -30 9 -30 13 0 24 15 40 36 40 19 0 24 -5 24 -24z
m-464 -48 c-4 -13 -11 -56 -17 -97 -8 -60 -7 -77 5 -96 14 -21 13 -23 -10 -33
-29 -14 -31 -37 -5 -52 30 -15 53 -2 49 29 -2 21 1 25 17 23 11 -2 23 -9 27
-15 4 -7 33 -12 67 -12 66 0 67 -6 6 -23 -38 -10 -201 -42 -218 -42 -4 0 -3 9
3 19 27 51 -1 66 -58 31 -26 -16 -32 -25 -27 -41 6 -18 3 -20 -21 -17 -42 5
-40 24 6 55 64 43 120 94 120 109 0 24 -64 87 -107 106 -24 10 -43 22 -43 26
0 4 19 8 43 8 23 1 62 11 87 22 62 29 84 28 76 0z m623 -97 c27 -52 40 -101
26 -101 -18 0 -135 67 -135 77 0 23 44 83 61 83 10 0 29 -24 48 -59z m-1509
13 c0 -14 -3 -14 -15 -4 -8 7 -15 14 -15 16 0 2 7 4 15 4 8 0 15 -7 15 -16z
m260 -15 c0 -11 5 -30 11 -42 9 -16 9 -22 0 -25 -16 -5 -14 -42 4 -42 7 0 18
7 23 15 7 13 18 6 59 -38 49 -51 78 -113 67 -141 -3 -7 2 -18 10 -25 12 -11
24 -10 61 5 31 11 49 14 56 7 19 -19 -16 -31 -116 -38 -60 -4 -95 -3 -87 3 7
5 14 20 15 33 1 13 8 33 14 45 11 18 8 25 -16 48 -16 15 -55 38 -87 51 -56 23
-59 26 -59 59 0 60 -35 73 -55 20 -5 -13 -13 -24 -17 -24 -14 0 -113 60 -113
68 0 4 9 13 21 20 17 11 30 11 69 1 41 -10 54 -10 87 3 51 21 53 21 53 -3z
m1710 -63 c10 -43 0 -52 -31 -28 -21 17 -21 21 -8 50 16 36 27 30 39 -22z
m-2025 24 c22 -25 16 -33 -19 -24 -25 6 -34 23 -19 37 10 11 19 8 38 -13z m25
-93 c0 -2 -22 -18 -48 -35 -63 -41 -119 -95 -161 -157 -19 -28 -36 -45 -38
-38 -7 19 73 129 115 160 20 15 39 30 42 33 20 20 90 49 90 37z m1334 -26 c3
-4 23 -11 43 -14 66 -11 228 -96 212 -111 -2 -2 -39 13 -81 34 -42 21 -98 46
-125 56 -48 17 -88 44 -66 44 7 0 14 -4 17 -9z m-1121 -31 c15 0 36 -9 48 -21
19 -19 19 -22 5 -38 -15 -16 -15 -19 -1 -31 21 -17 45 3 45 38 0 36 21 14 36
-38 l12 -41 -32 6 c-23 5 -36 2 -45 -9 -9 -11 -30 -16 -61 -16 -33 0 -50 -5
-54 -15 -8 -22 -43 -18 -56 5 -8 16 -6 26 11 50 17 22 20 32 11 43 -9 10 -9
22 1 46 9 25 16 31 32 27 11 -3 32 -6 48 -6z m-518 -30 c-19 -37 -40 -189 -31
-226 6 -23 11 -26 39 -21 18 3 39 8 49 12 11 5 20 -2 30 -22 17 -35 68 -46 68
-14 0 11 -5 23 -11 26 -24 15 3 29 94 50 100 22 132 20 108 -9 -7 -8 -22 -18
-32 -21 -12 -4 -22 -19 -26 -36 -6 -33 -7 -33 -32 -17 -25 15 -51 -4 -51 -37
0 -27 24 -39 50 -25 28 15 30 13 30 -30 0 -49 -28 -110 -50 -110 -26 0 -31 11
-15 33 15 22 10 67 -9 79 -15 10 -26 -11 -26 -49 0 -34 -6 -39 -28 -25 -7 5
-10 16 -6 26 6 14 2 17 -17 15 -13 -2 -34 2 -46 9 -35 20 -48 15 -92 -38 -23
-27 -46 -50 -51 -50 -5 0 -13 14 -18 32 -8 31 -18 41 -54 52 -26 8 -24 56 2
56 20 0 40 27 40 55 0 9 -14 24 -31 33 -27 15 -30 21 -25 51 3 19 17 58 31 86
14 29 25 56 25 61 0 20 62 84 81 84 19 0 19 -2 4 -30z m1520 -21 c0 -39 5 -49
36 -77 41 -36 52 -64 41 -107 -9 -33 -24 -41 -43 -23 -8 7 -25 14 -39 16 -37
4 -45 18 -45 80 0 52 -2 57 -23 60 -29 4 -39 -22 -18 -53 27 -41 21 -58 -16
-50 -48 11 -109 40 -139 68 -14 13 -35 30 -47 36 -24 13 -26 9 -22 -36 1 -17
-3 -21 -14 -17 -19 7 -21 47 -3 62 7 6 65 12 130 14 102 2 118 5 123 20 3 10
14 18 26 18 12 0 22 8 25 20 10 36 28 15 28 -31z m685 -184 c0 -57 -4 -95 -10
-95 -11 0 -14 130 -4 168 11 40 14 24 14 -73z m-166 34 c36 -43 80 -124 92
-172 9 -38 19 -40 84 -18 46 15 56 22 61 47 3 16 15 48 27 71 12 23 22 51 22
63 0 11 5 20 10 20 25 0 -32 -171 -91 -271 -15 -25 -30 -56 -34 -68 -9 -30
-55 -82 -66 -75 -5 3 -9 34 -9 69 0 73 -5 77 -69 58 -24 -7 -65 -13 -90 -13
-29 0 -57 -7 -76 -20 -36 -24 -75 -26 -75 -5 0 8 9 32 20 53 l21 39 46 -9 c36
-8 47 -7 54 3 15 25 3 34 -44 33 l-47 0 25 40 c40 64 63 118 70 159 8 48 25
47 69 -4z m-139 4 c-9 -37 -13 -40 -32 -20 -13 13 -14 19 -3 31 22 27 43 20
35 -11z m-75 -38 c0 -27 10 -31 41 -15 14 8 19 7 19 -2 -1 -24 -35 -76 -63
-98 -24 -19 -32 -21 -54 -11 -25 11 -25 12 -8 31 10 11 26 20 36 20 22 0 31
13 23 34 -4 11 -19 16 -44 16 -47 0 -66 -20 -50 -50 22 -41 -19 -38 -44 4 -9
14 -4 23 28 51 33 30 51 37 104 44 7 0 12 -10 12 -24z m-1930 -280 c0 -17 -2
-17 -10 -5 -5 8 -10 24 -10 35 0 17 2 17 10 5 5 -8 10 -24 10 -35z m40 -87 c0
-17 -3 -18 -15 -8 -8 7 -15 21 -15 32 0 17 3 18 15 8 8 -7 15 -21 15 -32z
m1860 18 c0 -8 -5 -18 -11 -22 -6 -3 -8 -17 -5 -30 4 -14 2 -33 -4 -44 -8 -15
-7 -27 5 -50 13 -25 14 -37 4 -73 -17 -61 -40 -77 -108 -77 -31 0 -63 5 -71
10 -10 6 -11 10 -2 10 22 0 12 26 -23 58 -38 35 -56 39 -75 17 -16 -20 -9 -49
15 -54 11 -2 29 -10 40 -18 18 -13 10 -14 -77 -11 l-97 3 -46 -45 c-25 -24
-48 -53 -51 -63 -3 -10 -19 -24 -34 -31 -41 -17 -100 -73 -100 -95 0 -17 18
-29 103 -65 20 -9 37 -20 37 -26 0 -13 -290 -13 -310 0 -8 5 -10 10 -4 10 13
0 64 70 64 88 0 7 -20 21 -44 32 -45 19 -80 60 -57 68 6 2 11 8 11 14 0 5 -9
6 -20 3 -15 -5 -33 5 -67 35 -25 22 -57 43 -70 46 -47 12 -23 26 35 21 116
-12 136 -19 142 -52 4 -22 11 -30 25 -30 16 0 21 8 25 39 4 32 10 41 30 46 14
4 34 4 45 0 16 -6 15 -8 -13 -18 -36 -12 -42 -36 -13 -54 15 -9 17 -17 10 -35
-20 -54 6 -75 36 -30 12 19 22 23 46 19 26 -4 30 -2 27 14 -2 10 -13 23 -25
30 -20 9 -21 13 -9 29 7 10 11 26 9 36 -4 13 2 20 23 25 16 3 44 10 63 15 44
11 50 5 23 -24 -26 -27 -28 -47 -7 -47 17 0 65 43 65 59 0 11 104 71 122 71 8
0 31 10 53 21 26 14 41 17 43 10 2 -6 24 -21 49 -32 47 -21 73 -15 73 18 0 12
8 14 36 8 l37 -6 -7 33 c-3 18 -15 40 -26 50 -11 9 -20 20 -20 24 0 10 81 83
93 84 4 0 7 -6 7 -14z m540 -35 c0 -21 -16 -2 -25 29 -7 24 -7 24 9 5 8 -11
16 -27 16 -34z m163 -10 c19 -32 22 -61 7 -61 -18 0 -10 -18 10 -23 12 -3 20
-14 20 -25 0 -17 -6 -20 -37 -19 -33 2 -38 5 -37 25 0 12 1 47 2 77 1 30 6 55
10 55 4 0 15 -13 25 -29z m-2099 -12 c14 -17 26 -34 26 -39 0 -13 160 -131
194 -142 38 -13 66 -36 66 -55 0 -17 -3 -17 -47 7 l-36 19 -39 -21 c-38 -22
-38 -22 -76 -3 -20 11 -40 21 -44 23 -5 2 -8 -6 -8 -17 0 -14 -6 -21 -20 -21
-11 0 -20 7 -20 15 0 9 -9 33 -20 55 -11 22 -20 53 -20 70 0 17 -7 47 -15 67
-30 70 11 99 59 42z m-244 -40 c23 -33 71 -83 106 -111 35 -27 64 -52 64 -54
0 -2 -9 -4 -19 -4 -38 0 -167 142 -194 213 -11 29 -2 20 43 -44z m692 41 c24
-10 51 -27 60 -37 12 -14 53 -86 76 -134 2 -4 -13 -10 -33 -13 -25 -5 -42 -2
-57 9 -13 8 -41 15 -63 15 -23 0 -46 5 -52 11 -6 6 -32 13 -57 14 -81 6 -86
22 -18 61 27 15 58 42 70 60 12 19 24 34 26 34 2 0 23 -9 48 -20z m1106 -59
c-13 -17 -27 -30 -31 -30 -5 -1 2 12 15 28 13 17 27 30 31 30 5 1 -2 -12 -15
-28z m302 -103 c60 -31 76 -60 61 -115 -16 -59 -39 -83 -73 -76 -21 4 -28 11
-28 29 0 15 -6 24 -15 24 -22 0 -31 -31 -14 -44 8 -6 13 -21 11 -33 -2 -16 2
-23 12 -23 9 0 16 -3 16 -7 -1 -14 -76 -117 -88 -121 -15 -5 -16 44 -2 53 13
8 13 48 -1 62 -13 13 -4 33 17 33 8 0 14 10 14 25 0 27 -9 32 -27 14 -17 -17
-33 -2 -33 29 1 24 2 25 11 9 10 -18 13 -17 45 14 37 36 43 56 19 65 -19 8
-65 -22 -65 -41 0 -27 -18 -16 -25 16 -5 23 -1 39 19 70 23 34 31 39 64 39 21
0 58 -10 82 -22z m298 -4 c12 -8 22 -22 22 -31 0 -14 -3 -13 -25 1 -27 18 -45
14 -45 -10 0 -8 -9 -14 -20 -14 -11 0 -23 -6 -26 -14 -7 -19 21 -73 45 -86 11
-5 21 -20 23 -32 2 -19 8 -23 36 -20 38 3 42 -15 6 -28 -38 -15 -41 -13 -65
30 -13 22 -33 47 -46 55 -13 9 -23 23 -23 33 0 9 -9 23 -20 30 -38 24 -21 88
22 77 16 -4 29 -1 37 9 17 20 50 20 79 0z m-2604 -9 c-4 -9 -19 -15 -38 -15
-29 1 -30 1 -12 15 26 20 57 20 50 0z m2033 -52 c-8 -9 -39 -21 -69 -28 -51
-11 -53 -13 -50 -42 2 -23 -3 -35 -20 -47 -27 -19 -38 -20 -38 -3 0 7 -6 22
-14 33 -14 18 -15 18 -22 -10 -5 -22 -3 -32 11 -42 16 -12 15 -15 -10 -40
l-27 -27 -15 31 c-14 29 -13 32 22 86 48 71 65 82 147 90 37 4 70 12 74 17 3
5 10 6 16 3 6 -4 4 -12 -5 -21z m-2042 -25 c-83 -59 -255 -276 -255 -322 0
-22 41 -20 85 4 45 25 81 25 147 0 29 -11 64 -20 77 -20 17 0 22 -4 17 -15
-13 -36 -35 -123 -41 -167 -9 -65 -26 -82 -68 -64 -27 11 -32 17 -29 45 2 25
-2 31 -17 31 -11 0 -21 -6 -24 -12 -4 -10 -7 -10 -18 0 -12 11 -11 15 4 26 22
17 22 23 -3 36 -17 9 -28 7 -54 -9 -47 -29 -72 -27 -91 8 -10 21 -12 32 -4 37
8 4 8 9 0 17 -9 9 -18 4 -34 -17 -21 -26 -25 -27 -46 -15 -20 13 -25 11 -53
-20 l-31 -34 6 29 c3 16 10 52 16 79 5 28 14 63 20 79 l12 29 22 -22 c28 -26
75 -28 83 -3 34 101 138 227 243 293 52 34 80 39 36 7z m2615 -18 c21 -17 23
-21 10 -30 -21 -14 -27 -12 -34 8 -3 9 -9 23 -12 30 -8 18 7 14 36 -8z m-2370
-15 c16 -19 37 -19 74 0 31 16 66 20 66 7 0 -17 -46 -49 -77 -55 -26 -5 -37
-1 -62 22 -17 16 -31 32 -31 35 0 11 18 6 30 -9z m200 -14 c0 -16 16 -59 35
-96 35 -65 35 -66 13 -63 -17 2 -22 9 -20 26 2 12 -2 22 -7 22 -6 0 -11 -4
-11 -10 0 -5 -9 -10 -19 -10 -15 0 -20 10 -26 51 -5 33 -3 55 4 62 6 6 11 19
11 29 0 10 5 18 10 18 6 0 10 -13 10 -29z m-300 4 c7 -8 10 -22 6 -30 -3 -8
-1 -15 4 -15 6 0 10 5 10 10 0 20 29 9 49 -19 30 -42 27 -70 -9 -84 -16 -6
-30 -16 -30 -21 0 -6 -18 -27 -40 -47 -22 -20 -40 -31 -40 -23 0 7 4 16 10 19
28 17 29 43 4 80 -25 37 -25 38 -9 91 16 57 24 64 45 39z m2496 -170 c-7 -36
-22 -46 -32 -21 -5 14 26 68 35 60 2 -1 0 -19 -3 -39z m-756 -13 c0 -10 -5
-23 -11 -29 -11 -11 -12 -11 56 -70 17 -14 23 -21 15 -15 -8 5 -34 16 -57 22
-23 7 -52 23 -64 36 l-21 23 27 25 c33 30 55 33 55 8z m230 -64 c0 -16 -33
-105 -42 -114 -4 -3 -20 5 -37 18 -20 18 -26 29 -20 39 5 8 6 22 3 31 -4 13 3
20 28 27 47 13 68 13 68 -1z m-1115 -8 c-44 -11 -67 -11 -60 0 3 6 25 9 48 9
40 -1 40 -2 12 -9z m1207 -67 c29 -26 22 -42 -17 -40 -37 2 -41 7 -25 38 13
23 18 24 42 2z m63 -120 c11 -44 48 -123 59 -123 5 0 24 5 42 12 30 11 35 9
52 -12 22 -27 42 -20 42 14 0 27 34 61 50 51 8 -5 9 -19 5 -39 -3 -17 -8 -46
-12 -64 -5 -32 -30 -55 -54 -50 -7 2 -14 -12 -16 -32 -3 -19 -14 -51 -25 -70
-23 -38 -78 -100 -89 -100 -3 0 -9 46 -11 103 -3 56 -9 110 -13 120 -11 26
-54 21 -127 -13 -51 -24 -76 -30 -134 -30 -46 0 -77 -5 -90 -15 -12 -9 -31
-12 -50 -9 -30 6 -32 4 -49 -48 -19 -58 -28 -68 -64 -68 -17 0 -22 4 -17 16 3
9 6 20 6 25 0 5 11 14 25 19 14 5 25 17 25 28 0 18 77 82 99 82 6 0 11 4 11
10 0 20 61 78 90 83 19 4 37 19 52 41 13 20 36 41 51 47 16 7 35 22 42 33 12
17 22 21 54 18 32 -3 40 -9 46 -29z m-2609 -15 c-6 -32 -23 -51 -38 -42 -15
10 -8 36 15 55 30 25 31 24 23 -13z m-76 -88 c0 -5 -7 -10 -15 -10 -8 0 -15 5
-15 10 0 6 7 10 15 10 8 0 15 -4 15 -10z m521 -138 c5 -36 3 -50 -9 -59 -9 -7
-13 -16 -9 -19 4 -4 13 -1 21 5 12 10 17 8 26 -8 11 -21 50 -30 50 -11 0 5 9
14 21 21 17 9 25 7 42 -8 12 -11 41 -32 65 -47 23 -16 42 -33 42 -38 0 -5 16
-6 35 -2 39 7 89 -2 81 -15 -3 -5 -18 -11 -33 -14 -16 -2 -54 -12 -87 -21 -69
-19 -96 -15 -88 16 3 15 1 19 -9 16 -8 -3 -13 -13 -11 -22 2 -13 -2 -15 -23
-10 -18 4 -32 1 -45 -11 -15 -14 -29 -16 -64 -11 -24 4 -49 12 -54 19 -10 12
-32 115 -32 149 0 10 11 28 25 40 14 12 25 27 25 33 0 7 -11 17 -25 23 -27 12
-32 31 -13 50 21 21 62 -23 69 -76z m4009 78 c0 -5 -7 -10 -15 -10 -8 0 -15 5
-15 10 0 6 7 10 15 10 8 0 15 -4 15 -10z m-4520 -14 c0 -15 -14 -35 -21 -30
-15 9 -10 34 6 34 8 0 15 -2 15 -4z m224 -98 c20 -29 45 -65 57 -80 29 -39 9
-35 -27 5 -43 46 -52 59 -69 101 -21 49 -6 39 39 -26z m356 10 c0 -16 -3 -19
-11 -11 -6 6 -8 16 -5 22 11 17 16 13 16 -11z m3920 12 c0 -5 -2 -10 -4 -10
-3 0 -8 5 -11 10 -3 6 -1 10 4 10 6 0 11 -4 11 -10z m-40 -53 c0 -6 -9 -2 -20
8 -11 10 -20 23 -20 28 0 6 9 2 20 -8 11 -10 20 -23 20 -28z m-1385 20 c105
-12 110 -13 113 -37 l4 -24 18 24 c16 22 22 23 56 14 l39 -9 29 -117 c28 -109
32 -119 60 -132 24 -12 31 -21 31 -45 0 -24 -3 -28 -17 -20 -10 5 -24 22 -32
37 -29 56 -86 81 -86 37 0 -26 -23 -16 -109 50 -82 62 -87 70 -70 103 8 15 20
31 26 35 18 11 16 27 -4 49 -21 24 -50 23 -58 -2 -6 -20 -7 -20 -33 1 l-27 20
-17 -21 -17 -21 -21 21 c-22 22 -27 50 -7 49 6 0 62 -6 122 -12z m1273 -71 c6
-13 8 -27 5 -30 -7 -7 -32 24 -33 42 0 20 16 14 28 -12z m76 -12 c4 -10 1 -14
-6 -12 -15 5 -23 28 -10 28 5 0 13 -7 16 -16z m-1874 -14 c-6 -11 -16 -20 -22
-20 -6 0 -3 9 7 20 10 11 20 20 22 20 2 0 -1 -9 -7 -20z m-380 -13 c0 -8 11
-24 25 -37 l24 -23 -21 -31 c-12 -17 -23 -33 -25 -35 -1 -2 -9 2 -18 9 -22 18
-29 6 -30 -48 l0 -47 -34 3 c-24 3 -32 0 -29 -10 3 -7 14 -14 24 -16 16 -2 20
-9 16 -31 -3 -23 1 -30 25 -39 15 -6 42 -13 58 -16 17 -2 47 -7 68 -11 45 -7
47 -19 7 -40 -37 -19 -50 -19 -50 0 0 8 -5 15 -10 15 -6 0 -10 -8 -8 -17 4
-25 -79 -70 -102 -55 -21 13 -30 6 -30 -19 0 -12 -10 -20 -27 -24 -16 -3 -54
-14 -85 -24 -45 -15 -58 -17 -58 -6 0 20 68 75 85 69 10 -4 15 0 15 13 0 10
16 43 35 72 20 30 35 61 33 70 -4 21 -83 50 -141 50 -65 1 -136 26 -181 63
-48 39 -36 53 44 53 46 1 64 6 82 22 13 11 39 24 58 28 19 4 48 15 64 24 22
12 30 13 33 4 6 -18 43 -16 48 2 3 8 7 22 10 30 6 20 95 21 95 2z m330 -42
c-13 -14 -26 -23 -28 -20 -7 7 29 45 41 45 6 0 0 -11 -13 -25z m-1484 -21 c-3
-9 -6 -22 -6 -30 0 -18 -34 -18 -49 0 -18 22 -2 46 31 46 23 0 29 -4 24 -16z
m3168 -10 c3 -9 6 -32 5 -52 l-1 -37 -19 43 c-19 40 -18 62 1 62 4 0 11 -7 14
-16z m-1754 -31 c-39 -33 -101 -72 -82 -53 19 21 107 87 111 84 2 -2 -11 -16
-29 -31z m1691 -20 c12 -32 8 -94 -6 -91 -12 2 -37 96 -29 109 10 17 24 9 35
-18z m-3006 7 c3 -5 1 -10 -5 -10 -6 0 -10 -10 -8 -22 2 -18 10 -23 33 -23 23
0 31 5 33 23 2 12 -2 22 -8 22 -6 0 -8 5 -5 10 18 28 139 0 177 -41 30 -33 63
-40 54 -11 -11 34 9 46 78 47 42 1 66 -2 66 -9 0 -6 7 -2 15 8 12 15 18 17 27
8 17 -17 -18 -52 -53 -52 -15 0 -34 -3 -43 -6 -20 -8 -21 -33 -1 -40 27 -11
15 -28 -44 -66 -38 -25 -69 -38 -92 -38 -76 0 -74 -29 6 -79 69 -44 140 -115
130 -131 -10 -17 -121 -8 -162 13 -17 9 -33 25 -36 37 -3 12 -13 20 -27 20
-18 0 -21 -5 -18 -27 2 -22 -1 -28 -16 -28 -20 0 -30 12 -46 58 -6 17 -17 27
-30 27 -16 0 -20 -7 -20 -35 0 -33 -2 -35 -35 -35 -25 0 -38 5 -42 18 -3 9
-13 25 -21 35 -21 24 -10 31 64 35 59 4 66 7 79 33 30 56 10 102 -64 154 -32
21 -41 34 -41 56 0 15 -4 31 -10 34 -5 3 -10 10 -10 16 0 12 67 12 75 -1z
m-778 -41 c10 0 44 7 76 16 33 9 60 15 61 13 46 -68 86 -153 86 -182 0 -20 -2
-36 -5 -36 -17 0 -73 30 -89 48 -13 15 -26 20 -42 16 -19 -5 -25 0 -38 30 -15
36 -29 45 -41 26 -12 -20 -24 -9 -31 26 l-7 36 -49 -7 c-40 -6 -49 -4 -46 6 3
8 22 19 44 25 32 10 41 9 51 -3 6 -8 19 -14 30 -14z m3517 -40 c-1 -59 -18
-104 -36 -93 -11 7 -5 103 8 138 13 34 29 9 28 -45z m104 -10 c3 -68 -13 -109
-37 -94 -12 7 -10 58 5 138 10 50 29 23 32 -44z m82 30 c0 -24 -4 -38 -10 -34
-5 3 -10 22 -10 41 0 19 5 34 10 34 6 0 10 -18 10 -41z m-280 -18 c0 -54 -14
-101 -30 -101 -5 0 -8 12 -5 28 2 15 7 48 10 75 8 62 25 61 25 -2z m-203 13
c22 -6 22 -7 6 -35 -10 -16 -20 -29 -23 -29 -7 1 -60 48 -60 54 0 2 10 7 23 9
12 2 24 5 27 6 3 0 15 -2 27 -5z m-2782 -30 c63 -14 245 -77 262 -91 17 -14
17 -14 -2 -8 -11 4 -38 12 -60 17 -58 13 -216 68 -245 85 -19 10 -20 12 -5 9
11 -3 34 -8 50 -12z m2810 -74 c-3 -5 -17 -10 -30 -10 -13 0 -27 5 -30 10 -4
6 8 10 30 10 22 0 34 -4 30 -10z m-1742 -67 c-13 -2 -33 -2 -45 0 -13 2 -3 4
22 4 25 0 35 -2 23 -4z m-898 -73 c3 -5 -1 -10 -9 -10 -8 0 -18 5 -21 10 -3 6
1 10 9 10 8 0 18 -4 21 -10z"/>
<path d="M5704 8646 c-7 -19 3 -36 22 -36 10 0 14 8 12 22 -4 26 -26 36 -34
14z"/>
<path d="M5984 8455 c-4 -9 -2 -21 4 -27 15 -15 44 -1 40 19 -4 23 -36 29 -44
8z"/>
<path d="M6755 7910 c-7 -12 2 -30 16 -30 5 0 9 9 9 20 0 21 -15 27 -25 10z"/>
<path d="M6767 7813 c-4 -3 -7 -12 -7 -20 0 -15 26 -18 34 -4 7 11 -18 33 -27
24z"/>
<path d="M6820 7799 c0 -5 5 -7 10 -4 6 3 10 8 10 11 0 2 -4 4 -10 4 -5 0 -10
-5 -10 -11z"/>
<path d="M7012 7293 c5 -25 28 -28 28 -4 0 12 -6 21 -16 21 -9 0 -14 -7 -12
-17z"/>
<path d="M6825 6870 c-10 -16 16 -43 28 -31 11 11 2 41 -12 41 -5 0 -13 -5
-16 -10z"/>
<path d="M6334 7249 c-8 -14 18 -31 30 -19 9 9 0 30 -14 30 -5 0 -12 -5 -16
-11z"/>
<path d="M6424 7219 c-10 -17 13 -36 27 -22 12 12 4 33 -11 33 -5 0 -12 -5
-16 -11z"/>
<path d="M6370 7181 c0 -12 6 -21 15 -21 8 0 15 4 15 9 0 5 -7 14 -15 21 -13
10 -15 9 -15 -9z"/>
<path d="M6510 7166 c0 -9 5 -16 10 -16 6 0 10 4 10 9 0 6 -4 13 -10 16 -5 3
-10 -1 -10 -9z"/>
<path d="M5842 7254 c4 -21 22 -23 26 -1 2 10 -3 17 -13 17 -10 0 -15 -6 -13
-16z"/>
<path d="M5474 7075 c-7 -18 3 -35 21 -35 15 0 28 27 19 41 -8 14 -34 11 -40
-6z"/>
<path d="M7300 6600 c0 -16 5 -21 23 -18 12 2 22 10 22 18 0 8 -10 16 -22 18
-18 3 -23 -2 -23 -18z"/>
<path d="M5962 6716 c1 -10 8 -17 13 -17 15 1 12 24 -3 29 -9 3 -13 -2 -10
-12z"/>
<path d="M5286 6093 c-11 -27 19 -47 70 -48 40 0 48 -4 55 -23 13 -33 54 -27
54 8 0 19 -6 26 -25 28 -14 2 -30 10 -36 18 -12 15 -65 34 -95 34 -9 0 -20 -8
-23 -17z"/>
<path d="M6837 6256 c-6 -15 1 -26 15 -26 4 0 8 9 8 20 0 23 -15 27 -23 6z"/>
<path d="M7325 6000 c-3 -5 -1 -10 4 -10 6 0 11 5 11 10 0 6 -2 10 -4 10 -3 0
-8 -4 -11 -10z"/>
<path d="M6756 5595 c-3 -9 1 -18 10 -22 19 -7 28 2 21 22 -8 19 -23 19 -31 0z"/>
<path d="M6975 5591 c-3 -5 -1 -12 5 -16 5 -3 10 1 10 9 0 18 -6 21 -15 7z"/>
<path d="M6130 5650 c0 -13 7 -20 18 -20 26 0 34 11 21 27 -17 20 -39 16 -39
-7z"/>
<path d="M5120 5193 c-33 -13 -41 -53 -10 -53 10 0 24 -9 30 -20 13 -24 30
-26 30 -5 0 8 -5 15 -10 15 -6 0 -9 14 -8 31 3 33 -6 42 -32 32z"/>
<path d="M5218 5179 c-28 -16 -21 -35 20 -60 53 -34 52 -34 52 -2 0 18 -9 38
-23 51 -27 25 -26 25 -49 11z"/>
<path d="M4897 5153 c-12 -11 -8 -23 8 -23 8 0 15 7 15 15 0 16 -12 20 -23 8z"/>
<path d="M5010 5096 c0 -9 5 -16 10 -16 6 0 10 4 10 9 0 6 -4 13 -10 16 -5 3
-10 -1 -10 -9z"/>
<path d="M5195 5070 c-2 -4 6 -12 19 -18 23 -10 36 -7 36 9 0 9 -49 18 -55 9z"/>
<path d="M5246 4992 c-3 -6 -1 -14 5 -17 15 -10 25 3 12 16 -7 7 -13 7 -17 1z"/>
<path d="M5381 5401 c-15 -10 -8 -41 9 -41 15 0 25 29 14 40 -5 5 -15 5 -23 1z"/>
<path d="M7315 5200 c3 -5 8 -10 11 -10 2 0 4 5 4 10 0 6 -5 10 -11 10 -5 0
-7 -4 -4 -10z"/>
<path d="M7442 4978 c6 -18 28 -21 28 -4 0 9 -7 16 -16 16 -9 0 -14 -5 -12
-12z"/>
<path d="M7367 4963 c-4 -3 -7 -26 -7 -50 0 -36 3 -43 20 -43 25 0 35 36 21
73 -10 27 -21 33 -34 20z"/>
<path d="M7494 4949 c-8 -14 11 -33 25 -25 6 4 11 14 11 22 0 16 -26 19 -36 3z"/>
<path d="M7282 4898 c-22 -22 -14 -48 14 -48 22 0 25 4 22 27 -3 30 -18 39
-36 21z"/>
<path d="M7615 4784 c-18 -18 -18 -17 -3 -49 22 -48 65 -23 52 30 -7 30 -29
38 -49 19z"/>
<path d="M5340 4660 c0 -5 5 -10 11 -10 5 0 7 5 4 10 -3 6 -8 10 -11 10 -2 0
-4 -4 -4 -10z"/>
<path d="M5507 4664 c-8 -8 1 -24 14 -24 5 0 9 7 9 15 0 15 -12 20 -23 9z"/>
<path d="M8101 4695 c-24 -31 -25 -70 -1 -70 23 0 46 49 34 76 l-10 22 -23
-28z"/>
<path d="M8007 4633 c-14 -14 -6 -40 22 -71 34 -36 34 -36 61 -20 15 10 22 10
32 0 33 -33 74 3 43 38 -19 21 -65 28 -65 10 0 -21 -29 -9 -50 20 -22 30 -31
35 -43 23z"/>
<path d="M6954 4599 c-8 -14 11 -33 25 -25 6 4 11 14 11 22 0 16 -26 19 -36 3z"/>
<path d="M7025 4587 c-14 -11 -15 -16 -5 -22 11 -7 29 9 30 28 0 10 -3 9 -25
-6z"/>
<path d="M6910 4520 c0 -5 5 -10 10 -10 6 0 10 5 10 10 0 6 -4 10 -10 10 -5 0
-10 -4 -10 -10z"/>
<path d="M6757 4463 c-16 -15 -6 -34 15 -31 29 4 38 38 10 38 -10 0 -22 -3
-25 -7z"/>
<path d="M6945 4250 c-3 -5 -1 -10 4 -10 6 0 11 5 11 10 0 6 -2 10 -4 10 -3 0
-8 -4 -11 -10z"/>
<path d="M6090 4470 c0 -5 5 -10 10 -10 6 0 10 5 10 10 0 6 -4 10 -10 10 -5 0
-10 -4 -10 -10z"/>
<path d="M6065 4380 c-4 -7 -3 -16 3 -22 14 -14 45 -2 40 15 -6 16 -34 21 -43
7z"/>
<path d="M6067 4256 c-7 -17 18 -40 33 -31 5 3 10 15 10 26 0 23 -35 27 -43 5z"/>
<path d="M6214 4175 c-4 -8 -3 -23 1 -32 6 -17 7 -17 20 0 14 19 10 47 -6 47
-5 0 -12 -7 -15 -15z"/>
<path d="M5261 4446 c-16 -19 19 -62 42 -53 21 8 22 31 1 51 -19 20 -28 20
-43 2z"/>
</g>
</svg>
